<svg width="32" height="38" viewBox="0 0 32 38" fill="none" xmlns="http://www.w3.org/2000/svg">
<path d="M16 0C15.4696 0 14.9609 0.235504 14.5858 0.654703C14.2107 1.0739 14 1.64246 14 2.23529V35.7647C14 36.3575 14.2107 36.9261 14.5858 37.3453C14.9609 37.7645 15.4696 38 16 38C16.5304 38 17.0391 37.7645 17.4142 37.3453C17.7893 36.9261 18 36.3575 18 35.7647V2.23529C18 1.64246 17.7893 1.0739 17.4142 0.654703C17.0391 0.235504 16.5304 0 16 0ZM30 17.8824C29.4696 17.8824 28.9609 18.1179 28.5858 18.5371C28.2107 18.9563 28 19.5248 28 20.1176V35.7647C28 36.3575 28.2107 36.9261 28.5858 37.3453C28.9609 37.7645 29.4696 38 30 38C30.5304 38 31.0391 37.7645 31.4142 37.3453C31.7893 36.9261 32 36.3575 32 35.7647V20.1176C32 19.5248 31.7893 18.9563 31.4142 18.5371C31.0391 18.1179 30.5304 17.8824 30 17.8824ZM2 8.94118C1.46957 8.94118 0.96086 9.17668 0.585787 9.59588C0.210714 10.0151 0 10.5836 0 11.1765V35.7647C0 36.3575 0.210714 36.9261 0.585787 37.3453C0.96086 37.7645 1.46957 38 2 38C2.53043 38 3.03914 37.7645 3.41421 37.3453C3.78929 36.9261 4 36.3575 4 35.7647V11.1765C4 10.5836 3.78929 10.0151 3.41421 9.59588C3.03914 9.17668 2.53043 8.94118 2 8.94118Z" fill="#E7B400"/>
</svg>
