<svg width="40" height="40" viewBox="0 0 40 40" fill="none" xmlns="http://www.w3.org/2000/svg">
<path fill-rule="evenodd" clip-rule="evenodd" d="M7.00004 9.625C6.4033 9.625 5.831 9.86205 5.40904 10.284C4.98709 10.706 4.75004 11.2783 4.75004 11.875V28.125C4.75004 28.7217 4.98709 29.294 5.40904 29.716C5.831 30.1379 6.4033 30.375 7.00004 30.375H33C33.5968 30.375 34.1691 30.1379 34.591 29.716C35.013 29.294 35.25 28.7217 35.25 28.125V11.875C35.25 11.2783 35.013 10.706 34.591 10.284C34.1691 9.86205 33.5968 9.625 33 9.625H7.00004ZM3.5 8.5C4.29703 7.70297 5.87287 7 7.00004 7H33C34.1272 7 35.703 7.70297 36.5 8.5C37.2971 9.29703 38 10.7478 38 11.875V28.125C38 29.2522 37.2971 30.703 36.5 31.5C35.703 32.297 34.1272 33 33 33H7.00004C5.87287 33 4.29703 32.297 3.5 31.5C2.70297 30.703 2 29.2522 2 28.125V12C2 10.8728 2.70297 9.29703 3.5 8.5Z" fill="#E7B400" stroke="#E7B400" stroke-width="0.3" stroke-linecap="round" stroke-linejoin="round"/>
<path fill-rule="evenodd" clip-rule="evenodd" d="M20 16.5C17.8599 16.5 16.5 17.8599 16.5 20C16.5 22.1401 17.8599 23.5 20 23.5C22.1401 23.5 23.5 22.1401 23.5 20C23.5 17.8599 22.1401 16.5 20 16.5ZM14.125 20C14.125 16.7553 16.7553 14.125 20 14.125C23.2447 14.125 25.875 16.7553 25.875 20C25.875 23.2447 23.2447 25.875 20 25.875C16.7553 25.875 14.125 23.2447 14.125 20Z" fill="#E7B400" stroke="#E7B400" stroke-width="0.3" stroke-linecap="round" stroke-linejoin="round"/>
<path fill-rule="evenodd" clip-rule="evenodd" d="M10.9995 9.36766C11.7792 9.36766 12.9998 6.58798 12.9998 7.36767C12.9998 10.1758 11.8843 12.869 9.89859 14.8547C7.91291 16.8404 5.21975 17.9559 2.41158 17.9559C1.63188 17.9559 2.99995 17.2356 2.99995 16.4559C2.99995 15.6762 1.63188 15.1324 2.41158 15.1324C4.47091 15.1324 6.44589 14.3143 7.90206 12.8582C9.35822 11.402 10.1763 9.427 10.1763 7.36767C10.1763 6.58798 10.2198 9.36766 10.9995 9.36766Z" fill="#E7B400" stroke="#E7B400" stroke-width="0.3" stroke-linecap="round" stroke-linejoin="round"/>
<path fill-rule="evenodd" clip-rule="evenodd" d="M29.0005 30.5883C28.2208 30.5883 27.0002 33.368 27.0002 32.5883C27.0002 29.7801 28.1157 27.0869 30.1014 25.1012C32.0871 23.1156 34.7802 22 37.5884 22C38.3681 22 37 22.7203 37 23.5C37 24.2797 38.3681 24.8236 37.5884 24.8236C35.5291 24.8236 33.5541 25.6416 32.0979 27.0978C30.6418 28.5539 29.8237 30.5289 29.8237 32.5883C29.8237 33.368 29.7802 30.5883 29.0005 30.5883Z" fill="#E7B400"/>
</svg>
