<svg width="27" height="30" viewBox="0 0 27 30" fill="none" xmlns="http://www.w3.org/2000/svg">
<path d="M26.4779 19.8884V2.01339C26.4767 1.76931 26.4206 1.52861 26.3137 1.30918C26.2068 1.08975 26.0519 0.897221 25.8604 0.74589C25.6716 0.593175 25.451 0.484709 25.2148 0.428467C24.9785 0.372225 24.7327 0.369636 24.4954 0.42089L9.87037 3.67089C9.50933 3.75231 9.1869 3.95454 8.95641 4.24412C8.72593 4.5337 8.6012 4.89329 8.60287 5.26339V18.8159C7.49353 18.2922 6.24429 18.1423 5.04255 18.3887C3.84081 18.6351 2.75137 19.2646 1.93767 20.1826C1.12397 21.1006 0.629874 22.2578 0.529514 23.4804C0.429154 24.703 0.727938 25.9252 1.38104 26.9637C2.03415 28.0021 3.00636 28.8008 4.15183 29.2399C5.2973 29.679 6.55426 29.7348 7.73415 29.399C8.91404 29.0632 9.95324 28.3539 10.6958 27.3774C11.4385 26.401 11.8444 25.2101 11.8529 23.9834C11.8697 23.702 11.8697 23.4198 11.8529 23.1384V6.56339L23.2279 4.04464V15.5659C22.1179 15.0419 20.8679 14.8921 19.6656 15.1391C18.4632 15.386 17.3735 16.0164 16.5599 16.9355C15.7464 17.8547 15.2531 19.0129 15.1539 20.2364C15.0548 21.4598 15.3553 22.6824 16.0102 23.7205C16.6652 24.7586 17.6393 25.5561 18.7862 25.9934C19.9331 26.4307 21.1909 26.4841 22.3707 26.1456C23.5506 25.8071 24.5887 25.095 25.3293 24.1161C26.0699 23.1373 26.4729 21.9446 26.4779 20.7171C26.4933 20.4411 26.4933 20.1644 26.4779 19.8884ZM6.23037 26.3884C5.77241 26.3882 5.32388 26.2582 4.93685 26.0134C4.54982 25.7686 4.24016 25.419 4.0438 25.0053C3.84745 24.5916 3.77245 24.1306 3.82752 23.676C3.88259 23.2213 4.06547 22.7917 4.35493 22.4368C4.64438 22.0819 5.02855 21.8164 5.46284 21.671C5.89713 21.5257 6.36373 21.5065 6.80848 21.6157C7.25323 21.7249 7.6579 21.958 7.97551 22.2879C8.29313 22.6178 8.51066 23.0311 8.60287 23.4796C8.61884 23.6417 8.61884 23.805 8.60287 23.9671C8.603 24.6009 8.3546 25.2095 7.91102 25.6622C7.46744 26.1149 6.86404 26.3756 6.23037 26.3884ZM20.8554 23.1384C20.3927 23.142 19.9385 23.0138 19.5459 22.7689C19.1534 22.5239 18.8387 22.1722 18.6386 21.755C18.4385 21.3378 18.3613 20.8723 18.416 20.4128C18.4707 19.9533 18.655 19.5189 18.9475 19.1603C19.24 18.8018 19.6285 18.5338 20.0676 18.3879C20.5067 18.2419 20.9782 18.224 21.4271 18.3361C21.8761 18.4483 22.2838 18.6859 22.6027 19.0212C22.9215 19.3565 23.1384 19.7757 23.2279 20.2296C23.2438 20.3917 23.2438 20.555 23.2279 20.7171C23.2236 21.358 22.9671 21.9714 22.514 22.4245C22.0608 22.8777 21.4475 23.1341 20.8066 23.1384H20.8554Z" fill="#E7B400"/>
</svg>
