<svg width="28" height="26" viewBox="0 0 28 26" fill="none" xmlns="http://www.w3.org/2000/svg">
<path d="M5.0603 3.25C5.49128 3.25 5.90461 3.07879 6.20935 2.77405C6.5141 2.4693 6.6853 2.05598 6.6853 1.625C6.6853 1.19402 6.5141 0.780698 6.20935 0.475952C5.90461 0.171205 5.49128 0 5.0603 0H1.8103C1.37933 0 0.966001 0.171205 0.661255 0.475952C0.356508 0.780698 0.185303 1.19402 0.185303 1.625V24.375C0.185303 24.806 0.356508 25.2193 0.661255 25.524C0.966001 25.8288 1.37933 26 1.8103 26H5.0603C5.49128 26 5.90461 25.8288 6.20935 25.524C6.5141 25.2193 6.6853 24.806 6.6853 24.375C6.6853 23.944 6.5141 23.5307 6.20935 23.226C5.90461 22.9212 5.49128 22.75 5.0603 22.75H3.4353V3.25H5.0603ZM27.5178 12.0575L22.9353 5.5575C22.6868 5.20717 22.3097 4.96948 21.8864 4.8964C21.4631 4.82332 21.0282 4.92079 20.6766 5.1675C20.5008 5.29065 20.3512 5.4474 20.2364 5.62868C20.1215 5.80997 20.0437 6.01221 20.0075 6.22373C19.9712 6.43524 19.9772 6.65184 20.0251 6.86103C20.073 7.07022 20.1619 7.26784 20.2866 7.4425L23.0816 11.375H9.9353C9.50433 11.375 9.091 11.5462 8.78626 11.851C8.48151 12.1557 8.3103 12.569 8.3103 13C8.3103 13.431 8.48151 13.8443 8.78626 14.149C9.091 14.4538 9.50433 14.625 9.9353 14.625H22.9353L20.0103 18.525C19.8823 18.6957 19.7891 18.89 19.7361 19.0967C19.6832 19.3034 19.6715 19.5186 19.7016 19.7298C19.7318 19.9411 19.8033 20.1443 19.912 20.3279C20.0208 20.5115 20.1646 20.672 20.3353 20.8C20.6166 21.011 20.9587 21.125 21.3103 21.125C21.5626 21.125 21.8114 21.0663 22.037 20.9534C22.2627 20.8406 22.4589 20.6768 22.6103 20.475L27.4853 13.975C27.6934 13.7002 27.8087 13.3663 27.8146 13.0216C27.8204 12.6769 27.7165 12.3392 27.5178 12.0575Z" fill="#E7B400"/>
</svg>
