<svg width="46" height="46" viewBox="0 0 46 46" fill="none" xmlns="http://www.w3.org/2000/svg">
<rect width="46" height="46" rx="10" fill="#E7B400"/>
<path d="M23.259 17.246C22.3062 17.2445 21.3836 17.5902 20.6547 18.2218C19.9258 18.8534 19.4376 19.7302 19.2765 20.6968C19.1154 21.6634 19.2919 22.6576 19.7746 23.5031C20.2574 24.3486 21.0153 24.991 21.9141 25.3165C21.9076 25.3948 21.9076 25.4735 21.9141 25.5518V33.8576C21.9141 34.2248 22.0558 34.5769 22.308 34.8365C22.5603 35.0961 22.9023 35.2419 23.259 35.2419C23.6157 35.2419 23.9578 35.0961 24.21 34.8365C24.4622 34.5769 24.6039 34.2248 24.6039 33.8576V25.5518C24.6104 25.4735 24.6104 25.3948 24.6039 25.3165C25.5027 24.991 26.2606 24.3486 26.7434 23.5031C27.2261 22.6576 27.4026 21.6634 27.2415 20.6968C27.0805 19.7302 26.5922 18.8534 25.8633 18.2218C25.1344 17.5902 24.2118 17.2445 23.259 17.246ZM23.259 22.7832C22.993 22.7832 22.733 22.702 22.5118 22.5499C22.2907 22.3978 22.1183 22.1816 22.0165 21.9286C21.9147 21.6757 21.8881 21.3974 21.94 21.1288C21.9919 20.8603 22.12 20.6136 22.308 20.42C22.4961 20.2264 22.7358 20.0946 22.9966 20.0412C23.2575 19.9878 23.5279 20.0152 23.7737 20.12C24.0194 20.2247 24.2294 20.4022 24.3772 20.6298C24.525 20.8575 24.6039 21.1251 24.6039 21.3989C24.6039 21.766 24.4622 22.1181 24.21 22.3777C23.9578 22.6373 23.6157 22.7832 23.259 22.7832ZM11.8277 21.3989C11.8644 19.9973 12.2017 18.6215 12.8155 17.3698C13.4293 16.1182 14.3044 15.0217 15.3781 14.159C15.6527 13.924 15.8255 13.5864 15.8582 13.2203C15.891 12.8543 15.7812 12.4898 15.5529 12.2071C15.4399 12.0671 15.3012 11.9514 15.1447 11.8666C14.9883 11.7818 14.8171 11.7296 14.641 11.7129C14.2854 11.6791 13.9313 11.7922 13.6567 12.0272C12.2773 13.1483 11.1566 14.5704 10.3752 16.1909C9.59387 17.8114 9.1713 19.5901 9.13794 21.3989C9.1713 23.2077 9.59387 24.9864 10.3752 26.6069C11.1566 28.2274 12.2773 29.6494 13.6567 30.7706C13.7927 30.887 13.9496 30.9746 14.1185 31.0285C14.2874 31.0824 14.4649 31.1016 14.641 31.0849C14.8171 31.0682 14.9883 31.0159 15.1447 30.9311C15.3012 30.8463 15.4399 30.7306 15.5529 30.5907C15.666 30.4507 15.7511 30.2892 15.8035 30.1153C15.8559 29.9415 15.8745 29.7587 15.8582 29.5775C15.842 29.3962 15.7913 29.22 15.7089 29.059C15.6265 28.8979 15.5141 28.7551 15.3781 28.6388C14.3044 27.776 13.4293 26.6796 12.8155 25.4279C12.2017 24.1763 11.8644 22.8004 11.8277 21.3989Z" fill="white"/>
<path d="M29.4992 14.8096C29.2241 14.6214 28.8913 14.5441 28.5643 14.5922C28.2373 14.6404 27.9389 14.8108 27.7261 15.0709C27.5134 15.331 27.401 15.6626 27.4105 16.0025C27.4201 16.3423 27.5508 16.6667 27.7778 16.9138C28.4424 17.4492 28.9844 18.1285 29.3656 18.9036C29.7467 19.6787 29.9576 20.5306 29.9833 21.3989C29.9576 22.2672 29.7467 23.1191 29.3656 23.8942C28.9844 24.6693 28.4424 25.3486 27.7778 25.884C27.5697 26.0672 27.4208 26.3114 27.3511 26.5839C27.2815 26.8564 27.2943 27.1444 27.3878 27.4093C27.4814 27.6741 27.6513 27.9033 27.8748 28.0661C28.0982 28.2289 28.3647 28.3176 28.6385 28.3204C28.9544 28.3172 29.2591 28.1995 29.4992 27.9882C30.4695 27.2006 31.2576 26.2008 31.8066 25.0612C32.3555 23.9216 32.6514 22.6707 32.6731 21.3989C32.6514 20.1271 32.3555 18.8762 31.8066 17.7366C31.2576 16.597 30.4695 15.5972 29.4992 14.8096ZM18.9017 14.9757C18.6721 14.6988 18.3458 14.526 17.9934 14.4949C17.641 14.4638 17.2908 14.5769 17.0188 14.8096C16.0485 15.5972 15.2604 16.597 14.7115 17.7366C14.1626 18.8762 13.8666 20.1271 13.845 21.3989C13.8666 22.6707 14.1626 23.9216 14.7115 25.0612C15.2604 26.2008 16.0485 27.2006 17.0188 27.9882C17.2908 28.2209 17.641 28.334 17.9934 28.3029C18.3458 28.2718 18.6721 28.099 18.9017 27.8221C19.1277 27.5421 19.2376 27.1817 19.2074 26.819C19.1772 26.4562 19.0094 26.1203 18.7403 25.884C18.0757 25.3486 17.5336 24.6693 17.1524 23.8942C16.7713 23.1191 16.5604 22.2672 16.5347 21.3989C16.5604 20.5306 16.7713 19.6787 17.1524 18.9036C17.5336 18.1285 18.0757 17.4492 18.7403 16.9138C19.0094 16.6775 19.1772 16.3416 19.2074 15.9788C19.2376 15.6161 19.1277 15.2557 18.9017 14.9757Z" fill="white"/>
<path d="M32.8613 12.0272C32.7253 11.9108 32.5684 11.8232 32.3995 11.7692C32.2306 11.7153 32.0531 11.6962 31.877 11.7129C31.7009 11.7296 31.5297 11.7818 31.3733 11.8666C31.2168 11.9514 31.0781 12.0671 30.9651 12.2071C30.852 12.3471 30.7669 12.5086 30.7145 12.6825C30.6621 12.8563 30.6435 13.0391 30.6597 13.2203C30.676 13.4016 30.7267 13.5777 30.8091 13.7388C30.8915 13.8999 31.0039 14.0426 31.1399 14.159C32.2136 15.0217 33.0886 16.1182 33.7024 17.3698C34.3162 18.6215 34.6536 19.9973 34.6903 21.3989C34.6536 22.8004 34.3162 24.1763 33.7024 25.4279C33.0886 26.6796 32.2136 27.776 31.1399 28.6388C30.8652 28.8737 30.6925 29.2114 30.6597 29.5774C30.627 29.9435 30.7368 30.3079 30.9651 30.5906C31.1933 30.8733 31.5214 31.0511 31.877 31.0849C32.2326 31.1186 32.5867 31.0056 32.8613 30.7706C34.2407 29.6494 35.3614 28.2274 36.1428 26.6069C36.9241 24.9864 37.3467 23.2077 37.38 21.3989C37.3467 19.5901 36.9241 17.8114 36.1428 16.1909C35.3614 14.5704 34.2407 13.1483 32.8613 12.0272Z" fill="white"/>
</svg>
