<svg width="32" height="30" viewBox="0 0 32 30" fill="none" xmlns="http://www.w3.org/2000/svg">
<path d="M27.0834 10.25C26.1034 10.2527 25.1483 10.5585 24.3489 11.1255C23.5495 11.6924 22.9451 12.4927 22.6184 13.4167H1.75008C1.33016 13.4167 0.927428 13.5835 0.630496 13.8804C0.333563 14.1773 0.166748 14.5801 0.166748 15C0.166748 15.4199 0.333563 15.8226 0.630496 16.1196C0.927428 16.4165 1.33016 16.5833 1.75008 16.5833H22.6184C22.9089 17.4049 23.4198 18.1307 24.0951 18.6814C24.7705 19.232 25.5843 19.5863 26.4475 19.7054C27.3107 19.8245 28.1901 19.7039 28.9893 19.3567C29.7885 19.0095 30.4769 18.4491 30.979 17.7369C31.4811 17.0247 31.7776 16.1881 31.8361 15.3187C31.8945 14.4493 31.7127 13.5805 31.3105 12.8075C30.9083 12.0345 30.3012 11.387 29.5556 10.9359C28.8101 10.4848 27.9548 10.2475 27.0834 10.25ZM27.0834 16.5833C26.7703 16.5833 26.4641 16.4905 26.2038 16.3165C25.9434 16.1425 25.7404 15.8952 25.6206 15.6059C25.5008 15.3166 25.4694 14.9982 25.5305 14.6911C25.5916 14.384 25.7424 14.1018 25.9638 13.8804C26.1853 13.659 26.4674 13.5082 26.7745 13.4471C27.0817 13.386 27.4 13.4173 27.6893 13.5372C27.9787 13.657 28.2259 13.86 28.3999 14.1203C28.5739 14.3807 28.6668 14.6868 28.6668 15C28.6668 15.4199 28.4999 15.8226 28.203 16.1196C27.9061 16.4165 27.5033 16.5833 27.0834 16.5833ZM1.75008 7.08332H3.61842C3.95124 8.00031 4.55833 8.79259 5.35718 9.35249C6.15603 9.91238 7.10789 10.2127 8.08342 10.2127C9.05894 10.2127 10.0108 9.91238 10.8097 9.35249C11.6085 8.79259 12.2156 8.00031 12.5484 7.08332H30.2501C30.67 7.08332 31.0727 6.91651 31.3697 6.61957C31.6666 6.32264 31.8334 5.91991 31.8334 5.49999C31.8334 5.08006 31.6666 4.67733 31.3697 4.3804C31.0727 4.08347 30.67 3.91665 30.2501 3.91665H12.5484C12.2156 2.99966 11.6085 2.20738 10.8097 1.64749C10.0108 1.08759 9.05894 0.787231 8.08342 0.787231C7.10789 0.787231 6.15603 1.08759 5.35718 1.64749C4.55833 2.20738 3.95124 2.99966 3.61842 3.91665H1.75008C1.33016 3.91665 0.927428 4.08347 0.630496 4.3804C0.333563 4.67733 0.166748 5.08006 0.166748 5.49999C0.166748 5.91991 0.333563 6.32264 0.630496 6.61957C0.927428 6.91651 1.33016 7.08332 1.75008 7.08332ZM8.08342 3.91665C8.39657 3.91665 8.70269 4.00951 8.96307 4.18349C9.22345 4.35747 9.42639 4.60476 9.54623 4.89407C9.66607 5.18339 9.69742 5.50174 9.63633 5.80888C9.57523 6.11602 9.42444 6.39814 9.203 6.61957C8.98157 6.84101 8.69945 6.9918 8.39231 7.0529C8.08517 7.11399 7.76682 7.08264 7.4775 6.9628C7.18818 6.84296 6.9409 6.64002 6.76692 6.37964C6.59294 6.11926 6.50008 5.81314 6.50008 5.49999C6.50008 5.08006 6.6669 4.67733 6.96383 4.3804C7.26076 4.08347 7.66349 3.91665 8.08342 3.91665ZM30.2501 22.9167H18.8818C18.5489 21.9997 17.9418 21.2074 17.143 20.6475C16.3441 20.0876 15.3923 19.7872 14.4168 19.7872C13.4412 19.7872 12.4894 20.0876 11.6905 20.6475C10.8917 21.2074 10.2846 21.9997 9.95175 22.9167H1.75008C1.33016 22.9167 0.927428 23.0835 0.630496 23.3804C0.333563 23.6773 0.166748 24.0801 0.166748 24.5C0.166748 24.9199 0.333563 25.3226 0.630496 25.6196C0.927428 25.9165 1.33016 26.0833 1.75008 26.0833H9.95175C10.2846 27.0003 10.8917 27.7926 11.6905 28.3525C12.4894 28.9124 13.4412 29.2127 14.4168 29.2127C15.3923 29.2127 16.3441 28.9124 17.143 28.3525C17.9418 27.7926 18.5489 27.0003 18.8818 26.0833H30.2501C30.67 26.0833 31.0727 25.9165 31.3697 25.6196C31.6666 25.3226 31.8334 24.9199 31.8334 24.5C31.8334 24.0801 31.6666 23.6773 31.3697 23.3804C31.0727 23.0835 30.67 22.9167 30.2501 22.9167ZM14.4168 26.0833C14.1036 26.0833 13.7975 25.9905 13.5371 25.8165C13.2767 25.6425 13.0738 25.3952 12.9539 25.1059C12.8341 24.8166 12.8027 24.4982 12.8638 24.1911C12.9249 23.884 13.0757 23.6018 13.2972 23.3804C13.5186 23.159 13.8007 23.0082 14.1079 22.9471C14.415 22.886 14.7334 22.9173 15.0227 23.0372C15.312 23.157 15.5593 23.36 15.7332 23.6203C15.9072 23.8807 16.0001 24.1868 16.0001 24.5C16.0001 24.9199 15.8333 25.3226 15.5363 25.6196C15.2394 25.9165 14.8367 26.0833 14.4168 26.0833Z" fill="#E7B400"/>
</svg>
