<svg width="32" height="31" viewBox="0 0 32 31" fill="none" xmlns="http://www.w3.org/2000/svg">
<path d="M2 9.74996H24.75L21.95 11.85C21.7661 11.9879 21.6113 12.1606 21.4942 12.3584C21.3771 12.5561 21.3001 12.775 21.2676 13.0025C21.2351 13.23 21.2477 13.4617 21.3048 13.6843C21.3618 13.9069 21.4621 14.1161 21.6 14.3C21.763 14.5173 21.9744 14.6937 22.2174 14.8152C22.4604 14.9367 22.7283 15 23 15C23.3786 15 23.7471 14.8772 24.05 14.65L31.05 9.39997C31.264 9.23665 31.4375 9.02615 31.5569 8.78485C31.6763 8.54354 31.7384 8.27794 31.7384 8.00872C31.7384 7.73949 31.6763 7.47389 31.5569 7.23258C31.4375 6.99128 31.264 6.78078 31.05 6.61747L24.295 1.36746C23.9283 1.08203 23.4633 0.953933 23.0022 1.01137C22.5411 1.0688 22.1217 1.30705 21.8363 1.67371C21.5508 2.04038 21.4227 2.50541 21.4802 2.96652C21.5376 3.42762 21.7758 3.84703 22.1425 4.13246L24.89 6.24997H2C1.53587 6.24997 1.09075 6.43434 0.762563 6.76253C0.434374 7.09072 0.25 7.53584 0.25 7.99996C0.25 8.46409 0.434374 8.90921 0.762563 9.2374C1.09075 9.56559 1.53587 9.74996 2 9.74996ZM30 22H7.25L10.05 19.9C10.4213 19.6215 10.6668 19.2069 10.7324 18.7475C10.798 18.288 10.6785 17.8213 10.4 17.45C10.1215 17.0787 9.70695 16.8332 9.24749 16.7676C8.78802 16.7019 8.3213 16.8215 7.95 17.1L0.95 22.35C0.735963 22.5133 0.562493 22.7238 0.443089 22.9651C0.323685 23.2064 0.261567 23.472 0.261567 23.7412C0.261567 24.0104 0.323685 24.276 0.443089 24.5173C0.562493 24.7586 0.735963 24.9692 0.95 25.1325L7.705 30.3825C8.01046 30.6195 8.38584 30.7488 8.7725 30.75C9.03976 30.7493 9.30332 30.6875 9.54296 30.5692C9.78261 30.4509 9.99197 30.2792 10.155 30.0675C10.4392 29.7026 10.5674 29.2402 10.5117 28.7811C10.4559 28.322 10.2207 27.9037 9.8575 27.6175L7.11 25.5H30C30.4641 25.5 30.9093 25.3156 31.2374 24.9874C31.5656 24.6592 31.75 24.2141 31.75 23.75C31.75 23.2858 31.5656 22.8407 31.2374 22.5125C30.9093 22.1843 30.4641 22 30 22Z" fill="#E7B400"/>
</svg>
