<svg width="52" height="52" viewBox="0 0 52 52" fill="none" xmlns="http://www.w3.org/2000/svg">
<path d="M43.4417 23.8333H8.55833C7.42155 23.8333 6.5 24.7549 6.5 25.8917V26.1084C6.5 27.2451 7.42155 28.1667 8.55833 28.1667H43.4417C44.5785 28.1667 45.5 27.2451 45.5 26.1084V25.8917C45.5 24.7549 44.5785 23.8333 43.4417 23.8333Z" fill="#2C2C2C"/>
<path d="M43.4417 34.6667H8.55833C7.42155 34.6667 6.5 35.5882 6.5 36.725V36.9417C6.5 38.0784 7.42155 39 8.55833 39H43.4417C44.5785 39 45.5 38.0784 45.5 36.9417V36.725C45.5 35.5882 44.5785 34.6667 43.4417 34.6667Z" fill="#2C2C2C"/>
<path d="M43.4417 13H8.55833C7.42155 13 6.5 13.9215 6.5 15.0583V15.275C6.5 16.4118 7.42155 17.3333 8.55833 17.3333H43.4417C44.5785 17.3333 45.5 16.4118 45.5 15.275V15.0583C45.5 13.9215 44.5785 13 43.4417 13Z" fill="#2C2C2C"/>
</svg>
