<svg width="50" height="50" viewBox="0 0 50 50" fill="none" xmlns="http://www.w3.org/2000/svg">
<rect width="50" height="50" rx="10" fill="#CB9200"/>
<path d="M27.0868 19.6319C26.7746 19.6319 26.4752 19.756 26.2545 19.9767C26.0337 20.1975 25.9097 20.4968 25.9097 20.809C25.9097 21.1212 26.0337 21.4206 26.2545 21.6414C26.4752 21.8621 26.7746 21.9861 27.0868 21.9861H32.5799C32.892 21.9861 33.1914 21.8621 33.4122 21.6414C33.6329 21.4206 33.7569 21.1212 33.7569 20.809C33.7569 20.4968 33.6329 20.1975 33.4122 19.9767C33.1914 19.756 32.892 19.6319 32.5799 19.6319H27.0868ZM25.9097 29.441C25.9097 29.1288 26.0337 28.8294 26.2545 28.6086C26.4752 28.3879 26.7746 28.2639 27.0868 28.2639H32.5799C32.892 28.2639 33.1914 28.3879 33.4122 28.6086C33.6329 28.8294 33.7569 29.1288 33.7569 29.441C33.7569 29.7532 33.6329 30.0525 33.4122 30.2733C33.1914 30.494 32.892 30.6181 32.5799 30.6181H27.0868C26.7746 30.6181 26.4752 30.494 26.2545 30.2733C26.0337 30.0525 25.9097 29.7532 25.9097 29.441ZM23.2103 18.4078C23.4307 18.6285 23.5545 18.9277 23.5545 19.2396C23.5545 19.5515 23.4307 19.8507 23.2103 20.0714L20.0714 23.2103C19.8507 23.4307 19.5515 23.5545 19.2396 23.5545C18.9277 23.5545 18.6285 23.4307 18.4078 23.2103L16.8383 21.6408C16.6304 21.4177 16.5172 21.1226 16.5226 20.8176C16.528 20.5127 16.6515 20.2217 16.8672 20.0061C17.0828 19.7904 17.3738 19.6669 17.6787 19.6615C17.9837 19.6561 18.2788 19.7693 18.5019 19.9772L19.2396 20.7149L21.5467 18.4078C21.7674 18.1873 22.0665 18.0635 22.3785 18.0635C22.6904 18.0635 22.9896 18.1873 23.2103 18.4078ZM23.2103 28.7033C23.3259 28.5956 23.4187 28.4656 23.483 28.3212C23.5474 28.1768 23.5819 28.021 23.5847 27.8629C23.5875 27.7049 23.5584 27.5479 23.4992 27.4013C23.44 27.2548 23.3519 27.1216 23.2402 27.0098C23.1284 26.8981 22.9952 26.81 22.8487 26.7508C22.7021 26.6916 22.5451 26.6625 22.3871 26.6653C22.229 26.6681 22.0732 26.7026 21.9288 26.767C21.7844 26.8313 21.6544 26.9241 21.5467 27.0397L19.2396 29.3468L18.5019 28.6092C18.2788 28.4012 17.9837 28.2881 17.6787 28.2934C17.3738 28.2988 17.0828 28.4223 16.8672 28.638C16.6515 28.8537 16.528 29.1446 16.5226 29.4496C16.5172 29.7545 16.6304 30.0496 16.8383 30.2728L18.4078 31.8422C18.6285 32.0627 18.9277 32.1865 19.2396 32.1865C19.5515 32.1865 19.8507 32.0627 20.0714 31.8422L23.2103 28.7033ZM14.5312 11C13.5947 11 12.6965 11.372 12.0343 12.0343C11.372 12.6965 11 13.5947 11 14.5312V35.7188C11 36.6553 11.372 37.5535 12.0343 38.2157C12.6965 38.878 13.5947 39.25 14.5312 39.25H35.7188C36.6553 39.25 37.5535 38.878 38.2157 38.2157C38.878 37.5535 39.25 36.6553 39.25 35.7188V14.5312C39.25 13.5947 38.878 12.6965 38.2157 12.0343C37.5535 11.372 36.6553 11 35.7188 11H14.5312ZM13.3542 14.5312C13.3542 14.2191 13.4782 13.9197 13.6989 13.6989C13.9197 13.4782 14.2191 13.3542 14.5312 13.3542H35.7188C36.0309 13.3542 36.3303 13.4782 36.5511 13.6989C36.7718 13.9197 36.8958 14.2191 36.8958 14.5312V35.7188C36.8958 36.0309 36.7718 36.3303 36.5511 36.5511C36.3303 36.7718 36.0309 36.8958 35.7188 36.8958H14.5312C14.2191 36.8958 13.9197 36.7718 13.6989 36.5511C13.4782 36.3303 13.3542 36.0309 13.3542 35.7188V14.5312Z" fill="white"/>
</svg>
