<svg width="36" height="26" viewBox="0 0 36 26" fill="none" xmlns="http://www.w3.org/2000/svg">
<path d="M30.25 0.5H5.75C4.35761 0.5 3.02226 0.99386 2.03769 1.87294C1.05312 2.75201 0.5 3.9443 0.5 5.1875V20.8125C0.5 22.0557 1.05312 23.248 2.03769 24.1271C3.02226 25.0061 4.35761 25.5 5.75 25.5H30.25C31.6424 25.5 32.9777 25.0061 33.9623 24.1271C34.9469 23.248 35.5 22.0557 35.5 20.8125V5.1875C35.5 3.9443 34.9469 2.75201 33.9623 1.87294C32.9777 0.99386 31.6424 0.5 30.25 0.5ZM29.0775 3.625L18 11.0469L6.9225 3.625H29.0775ZM30.25 22.375H5.75C5.28587 22.375 4.84075 22.2104 4.51256 21.9174C4.18437 21.6243 4 21.2269 4 20.8125V5.57812L16.95 14.25C17.2529 14.4528 17.6214 14.5625 18 14.5625C18.3786 14.5625 18.7471 14.4528 19.05 14.25L32 5.57812V20.8125C32 21.2269 31.8156 21.6243 31.4874 21.9174C31.1593 22.2104 30.7141 22.375 30.25 22.375Z" fill="#E7B400"/>
</svg>
