<svg width="50" height="50" viewBox="0 0 50 50" fill="none" xmlns="http://www.w3.org/2000/svg">
<rect width="50" height="50" rx="10" fill="#525252"/>
<path d="M26.6124 21.6125L21.6124 26.6125C21.4953 26.7287 21.4023 26.8669 21.3388 27.0193C21.2753 27.1716 21.2427 27.335 21.2427 27.5C21.2427 27.665 21.2753 27.8284 21.3388 27.9807C21.4023 28.133 21.4953 28.2713 21.6124 28.3875C21.7286 28.5046 21.8669 28.5976 22.0192 28.6611C22.1715 28.7246 22.3349 28.7572 22.4999 28.7572C22.6649 28.7572 22.8283 28.7246 22.9806 28.6611C23.133 28.5976 23.2712 28.5046 23.3874 28.3875L28.3874 23.3875C28.6228 23.1521 28.755 22.8329 28.755 22.5C28.755 22.1671 28.6228 21.8479 28.3874 21.6125C28.152 21.3771 27.8328 21.2449 27.4999 21.2449C27.167 21.2449 26.8478 21.3771 26.6124 21.6125Z" fill="white"/>
<path d="M25.3499 31.7499L23.7499 33.3374C22.8517 34.263 21.6442 34.8255 20.3578 34.9177C19.0713 35.0099 17.796 34.6254 16.7749 33.8374C16.2353 33.3927 15.7949 32.8398 15.4822 32.2143C15.1696 31.5888 14.9916 30.9047 14.9598 30.2061C14.928 29.5076 15.043 28.8101 15.2976 28.1588C15.5521 27.5075 15.9404 26.9168 16.4374 26.4249L18.2124 24.6374C18.3296 24.5212 18.4226 24.383 18.486 24.2306C18.5495 24.0783 18.5822 23.9149 18.5822 23.7499C18.5822 23.5849 18.5495 23.4215 18.486 23.2692C18.4226 23.1169 18.3296 22.9786 18.2124 22.8624C18.0962 22.7453 17.958 22.6523 17.8056 22.5888C17.6533 22.5254 17.4899 22.4927 17.3249 22.4927C17.1599 22.4927 16.9965 22.5254 16.8442 22.5888C16.6919 22.6523 16.5536 22.7453 16.4374 22.8624L14.8499 24.4624C13.5126 25.7574 12.6906 27.4937 12.5366 29.3489C12.3826 31.2041 12.907 33.0521 14.0124 34.5499C14.6685 35.4011 15.4982 36.1029 16.4464 36.6087C17.3946 37.1146 18.4396 37.4129 19.5119 37.4838C20.5842 37.5548 21.6594 37.3967 22.6659 37.0202C23.6725 36.6436 24.5874 36.0572 25.3499 35.2999L27.1249 33.5249C27.3603 33.2895 27.4925 32.9703 27.4925 32.6374C27.4925 32.3046 27.3603 31.9853 27.1249 31.7499C26.8895 31.5145 26.5703 31.3823 26.2374 31.3823C25.9045 31.3823 25.5853 31.5145 25.3499 31.7499ZM34.5749 14.0249C33.0668 12.908 31.2036 12.3783 29.3335 12.5347C27.4633 12.6911 25.714 13.523 24.4124 14.8749L23.0624 16.2499C22.9081 16.3621 22.7791 16.5054 22.6837 16.6706C22.5883 16.8358 22.5286 17.0192 22.5086 17.2089C22.4886 17.3986 22.5086 17.5904 22.5674 17.7719C22.6262 17.9534 22.7224 18.1205 22.8499 18.2624C22.9661 18.3796 23.1044 18.4726 23.2567 18.536C23.409 18.5995 23.5724 18.6322 23.7374 18.6322C23.9024 18.6322 24.0658 18.5995 24.2181 18.536C24.3705 18.4726 24.5087 18.3796 24.6249 18.2624L26.2499 16.6249C27.1432 15.6953 28.3492 15.1297 29.6351 15.0374C30.921 14.945 32.1955 15.3325 33.2124 16.1249C33.7561 16.5697 34.2 17.124 34.5151 17.7518C34.8303 18.3795 35.0096 19.0666 35.0414 19.7683C35.0733 20.47 34.9569 21.1706 34.6999 21.8243C34.4429 22.478 34.0511 23.0703 33.5499 23.5624L31.7749 25.3499C31.6578 25.4661 31.5648 25.6044 31.5013 25.7567C31.4378 25.909 31.4052 26.0724 31.4052 26.2374C31.4052 26.4024 31.4378 26.5658 31.5013 26.7181C31.5648 26.8705 31.6578 27.0087 31.7749 27.1249C31.8911 27.2421 32.0294 27.3351 32.1817 27.3985C32.334 27.462 32.4974 27.4947 32.6624 27.4947C32.8274 27.4947 32.9908 27.462 33.1431 27.3985C33.2955 27.3351 33.4337 27.2421 33.5499 27.1249L35.3249 25.3499C36.0801 24.5876 36.6647 23.6734 37.04 22.6681C37.4153 21.6628 37.5727 20.5892 37.5017 19.5184C37.4308 18.4477 37.1332 17.4042 36.6287 16.4572C36.1241 15.5101 35.424 14.681 34.5749 14.0249Z" fill="white"/>
</svg>
