<svg width="26" height="30" viewBox="0 0 26 30" fill="none" xmlns="http://www.w3.org/2000/svg">
<path d="M24.375 0.375H4.875C3.58207 0.375 2.34209 0.888615 1.42785 1.80285C0.513615 2.71709 0 3.95707 0 5.25V24.75C0 26.0429 0.513615 27.2829 1.42785 28.1971C2.34209 29.1114 3.58207 29.625 4.875 29.625H24.375C24.806 29.625 25.2193 29.4538 25.524 29.149C25.8288 28.8443 26 28.431 26 28V2C26 1.56902 25.8288 1.1557 25.524 0.850951C25.2193 0.546205 24.806 0.375 24.375 0.375ZM4.875 3.625H22.75V19.875H4.875C4.32064 19.8794 3.7711 19.9783 3.25 20.1675V5.25C3.25 4.81902 3.42121 4.4057 3.72595 4.10095C4.0307 3.79621 4.44402 3.625 4.875 3.625ZM4.875 26.375C4.44402 26.375 4.0307 26.2038 3.72595 25.899C3.42121 25.5943 3.25 25.181 3.25 24.75C3.25 24.319 3.42121 23.9057 3.72595 23.601C4.0307 23.2962 4.44402 23.125 4.875 23.125H22.75V26.375H4.875Z" fill="#E7B400"/>
</svg>
