<svg width="40" height="40" viewBox="0 0 40 40" fill="none" xmlns="http://www.w3.org/2000/svg">
<g clip-path="url(#clip0)">
<path d="M20 20C21.2856 20 22.5423 19.6188 23.6112 18.9046C24.6801 18.1903 25.5132 17.1752 26.0052 15.9874C26.4972 14.7997 26.6259 13.4928 26.3751 12.2319C26.1243 10.971 25.5052 9.81285 24.5962 8.90381C23.6872 7.99477 22.529 7.3757 21.2681 7.1249C20.0072 6.87409 18.7003 7.00282 17.5126 7.49479C16.3248 7.98676 15.3097 8.81988 14.5954 9.8888C13.8812 10.9577 13.5 12.2144 13.5 13.5C13.5 15.2239 14.1848 16.8772 15.4038 18.0962C16.6228 19.3152 18.2761 20 20 20ZM20 10.25C20.6428 10.25 21.2711 10.4406 21.8056 10.7977C22.3401 11.1548 22.7566 11.6624 23.0026 12.2563C23.2486 12.8501 23.313 13.5036 23.1876 14.134C23.0622 14.7645 22.7526 15.3436 22.2981 15.7981C21.8436 16.2526 21.2645 16.5622 20.634 16.6876C20.0036 16.813 19.3501 16.7486 18.7563 16.5026C18.1624 16.2566 17.6548 15.8401 17.2977 15.3056C16.9406 14.7711 16.75 14.1428 16.75 13.5C16.75 12.638 17.0924 11.8114 17.7019 11.2019C18.3114 10.5924 19.138 10.25 20 10.25ZM20 23.25C16.9832 23.25 14.0899 24.4484 11.9567 26.5817C9.82343 28.7149 8.625 31.6082 8.625 34.625C8.625 35.056 8.79621 35.4693 9.10095 35.7741C9.4057 36.0788 9.81902 36.25 10.25 36.25C10.681 36.25 11.0943 36.0788 11.399 35.7741C11.7038 35.4693 11.875 35.056 11.875 34.625C11.875 32.4701 12.731 30.4035 14.2548 28.8798C15.7785 27.356 17.8451 26.5 20 26.5C22.1549 26.5 24.2215 27.356 25.7452 28.8798C27.269 30.4035 28.125 32.4701 28.125 34.625C28.125 35.056 28.2962 35.4693 28.601 35.7741C28.9057 36.0788 29.319 36.25 29.75 36.25C30.181 36.25 30.5943 36.0788 30.899 35.7741C31.2038 35.4693 31.375 35.056 31.375 34.625C31.375 31.6082 30.1766 28.7149 28.0433 26.5817C25.9101 24.4484 23.0168 23.25 20 23.25Z" fill="#E7B400"/>
<path d="M20 39.5C16.1433 39.5 12.3731 38.3563 9.16639 36.2137C5.95963 34.071 3.46027 31.0255 1.98436 27.4623C0.508449 23.8992 0.122284 19.9784 0.874696 16.1957C1.62711 12.4131 3.4843 8.93855 6.21143 6.21143C8.93855 3.4843 12.4131 1.62711 16.1957 0.874696C19.9784 0.122284 23.8992 0.508449 27.4623 1.98436C31.0255 3.46027 34.071 5.95963 36.2137 9.16639C38.3563 12.3731 39.5 16.1433 39.5 20C39.5 25.1717 37.4455 30.1316 33.7886 33.7886C30.1316 37.4455 25.1717 39.5 20 39.5ZM20 4.40001C16.9146 4.40001 13.8985 5.31493 11.3331 7.02908C8.7677 8.74323 6.76821 11.1796 5.58749 14.0301C4.40676 16.8807 4.09783 20.0173 4.69976 23.0434C5.30169 26.0695 6.78744 28.8492 8.96914 31.0309C11.1508 33.2126 13.9305 34.6983 16.9566 35.3003C19.9827 35.9022 23.1193 35.5933 25.9699 34.4125C28.8204 33.2318 31.2568 31.2323 32.9709 28.6669C34.6851 26.1015 35.6 23.0854 35.6 20C35.6 15.8626 33.9564 11.8947 31.0309 8.96914C28.1053 6.04357 24.1374 4.40001 20 4.40001Z" fill="#E7B400"/>
</g>
<defs>
<clipPath id="clip0">
<rect width="39" height="39" fill="white" transform="translate(0.5 0.5)"/>
</clipPath>
</defs>
</svg>
