<svg width="34" height="30" viewBox="0 0 34 30" fill="none" xmlns="http://www.w3.org/2000/svg">
<path d="M28.375 6.875H23.5V4.4375C23.5 3.36006 23.072 2.32675 22.3101 1.56488C21.5483 0.803012 20.5149 0.375 19.4375 0.375H14.5625C13.4851 0.375 12.4517 0.803012 11.6899 1.56488C10.928 2.32675 10.5 3.36006 10.5 4.4375V6.875H5.625C4.33207 6.875 3.09209 7.38861 2.17785 8.30285C1.26361 9.21709 0.75 10.4571 0.75 11.75V24.75C0.75 26.0429 1.26361 27.2829 2.17785 28.1971C3.09209 29.1114 4.33207 29.625 5.625 29.625H28.375C29.6679 29.625 30.9079 29.1114 31.8221 28.1971C32.7364 27.2829 33.25 26.0429 33.25 24.75V11.75C33.25 10.4571 32.7364 9.21709 31.8221 8.30285C30.9079 7.38861 29.6679 6.875 28.375 6.875ZM13.75 4.4375C13.75 4.22201 13.8356 4.01535 13.988 3.86298C14.1403 3.7106 14.347 3.625 14.5625 3.625H19.4375C19.653 3.625 19.8597 3.7106 20.012 3.86298C20.1644 4.01535 20.25 4.22201 20.25 4.4375V6.875H13.75V4.4375ZM30 24.75C30 25.181 29.8288 25.5943 29.524 25.899C29.2193 26.2038 28.806 26.375 28.375 26.375H5.625C5.19402 26.375 4.7807 26.2038 4.47595 25.899C4.17121 25.5943 4 25.181 4 24.75V11.75C4 11.319 4.17121 10.9057 4.47595 10.601C4.7807 10.2962 5.19402 10.125 5.625 10.125H28.375C28.806 10.125 29.2193 10.2962 29.524 10.601C29.8288 10.9057 30 11.319 30 11.75V24.75Z" fill="#E7B400"/>
</svg>
