<svg width="40" height="24" viewBox="0 0 40 24" fill="none" xmlns="http://www.w3.org/2000/svg">
<path d="M21.3683 4.68546C21.3683 4.20061 21.5609 3.73562 21.9038 3.39278C22.2466 3.04994 22.7116 2.85734 23.1965 2.85734H37.2121C37.6969 2.85734 38.1619 3.04994 38.5048 3.39278C38.8476 3.73562 39.0402 4.20061 39.0402 4.68546C39.0402 5.17031 38.8476 5.6353 38.5048 5.97814C38.1619 6.32098 37.6969 6.51359 37.2121 6.51359H23.1965C22.7116 6.51359 22.2466 6.32098 21.9038 5.97814C21.5609 5.6353 21.3683 5.17031 21.3683 4.68546ZM37.2121 10.1698H23.1965C22.7116 10.1698 22.2466 10.3624 21.9038 10.7053C21.5609 11.0481 21.3683 11.5131 21.3683 11.998C21.3683 12.4828 21.5609 12.9478 21.9038 13.2906C22.2466 13.6335 22.7116 13.8261 23.1965 13.8261H37.2121C37.6969 13.8261 38.1619 13.6335 38.5048 13.2906C38.8476 12.9478 39.0402 12.4828 39.0402 11.998C39.0402 11.5131 38.8476 11.0481 38.5048 10.7053C38.1619 10.3624 37.6969 10.1698 37.2121 10.1698ZM37.2121 17.4823H26.8527C26.3679 17.4823 25.9029 17.6749 25.56 18.0178C25.2172 18.3606 25.0246 18.8256 25.0246 19.3105C25.0246 19.7953 25.2172 20.2603 25.56 20.6031C25.9029 20.946 26.3679 21.1386 26.8527 21.1386H37.2121C37.6969 21.1386 38.1619 20.946 38.5048 20.6031C38.8476 20.2603 39.0402 19.7953 39.0402 19.3105C39.0402 18.8256 38.8476 18.3606 38.5048 18.0178C38.1619 17.6749 37.6969 17.4823 37.2121 17.4823ZM23.441 21.2923C23.5026 21.5254 23.5175 21.7683 23.4849 22.0072C23.4522 22.2461 23.3727 22.4761 23.2507 22.6841C23.1288 22.8921 22.967 23.0739 22.7745 23.2191C22.582 23.3643 22.3627 23.47 22.1293 23.5301C21.8958 23.5902 21.6527 23.6035 21.4141 23.5693C21.1754 23.535 20.9459 23.4539 20.7387 23.3307C20.5316 23.2074 20.3508 23.0443 20.2069 22.8509C20.063 22.6575 19.9588 22.4375 19.9002 22.2036C19.4603 20.5033 18.4681 18.9972 17.0793 17.922C15.6906 16.8468 13.984 16.2634 12.2277 16.2634C10.4714 16.2634 8.76483 16.8468 7.37609 17.922C5.98735 18.9972 4.9951 20.5033 4.55523 22.2036C4.43181 22.6703 4.1288 23.0693 3.71232 23.3134C3.29584 23.5575 2.7997 23.627 2.33218 23.5067C1.86466 23.3864 1.46371 23.086 1.21684 22.6711C0.969966 22.2563 0.897211 21.7606 1.01445 21.2923C1.41028 19.7525 2.11955 18.3109 3.0979 17.0577C4.07625 15.8045 5.30264 14.7666 6.70038 14.0089C5.57162 12.9095 4.79636 11.4985 4.4737 9.95615C4.15105 8.41385 4.29566 6.81037 4.88905 5.35069C5.48243 3.891 6.49764 2.64143 7.80489 1.76172C9.11213 0.882001 10.652 0.412109 12.2277 0.412109C13.8034 0.412109 15.3433 0.882001 16.6505 1.76172C17.9578 2.64143 18.973 3.891 19.5664 5.35069C20.1598 6.81037 20.3044 8.41385 19.9817 9.95615C19.6591 11.4985 18.8838 12.9095 17.7551 14.0089C19.1528 14.7665 20.3792 15.8044 21.3575 17.0576C22.3358 18.3108 23.0451 19.7524 23.441 21.2921V21.2923ZM12.2277 12.6073C13.0714 12.6073 13.8961 12.3572 14.5976 11.8885C15.299 11.4197 15.8458 10.7535 16.1686 9.9741C16.4915 9.19465 16.576 8.33698 16.4114 7.50953C16.2468 6.68208 15.8405 5.92202 15.244 5.32546C14.6474 4.7289 13.8873 4.32264 13.0599 4.15805C12.2324 3.99346 11.3748 4.07793 10.5953 4.40079C9.81589 4.72364 9.14969 5.27038 8.68098 5.97186C8.21226 6.67334 7.96209 7.49805 7.96209 8.34171C7.96334 9.47264 8.41315 10.5569 9.21284 11.3566C10.0125 12.1563 11.0968 12.6061 12.2277 12.6073Z" fill="#E7B400"/>
</svg>
